<svg width="191" height="32" viewBox="0 0 191 32" fill="none" xmlns="http://www.w3.org/2000/svg">
<g filter="url(#filter0_d_103_3)">
<path d="M17.1111 23.448C15.3404 23.448 13.6977 23.1707 12.1831 22.616C10.6897 22.04 9.38841 21.2293 8.27908 20.184C7.19108 19.1387 6.33775 17.912 5.71908 16.504C5.10041 15.0747 4.79108 13.5067 4.79108 11.8C4.79108 10.0933 5.10041 8.536 5.71908 7.128C6.33775 5.69867 7.19108 4.46133 8.27908 3.416C9.38841 2.37067 10.6897 1.57067 12.1831 1.016C13.6977 0.439999 15.3404 0.151999 17.1111 0.151999C19.1804 0.151999 21.0257 0.514666 22.6471 1.24C24.2897 1.96533 25.6551 3.01067 26.7431 4.376L22.7111 8.024C21.9857 7.17067 21.1857 6.52 20.3111 6.072C19.4577 5.624 18.4977 5.4 17.4311 5.4C16.5137 5.4 15.6711 5.54933 14.9031 5.848C14.1351 6.14667 13.4737 6.584 12.9191 7.16C12.3857 7.71467 11.9591 8.38667 11.6391 9.176C11.3404 9.96533 11.1911 10.84 11.1911 11.8C11.1911 12.76 11.3404 13.6347 11.6391 14.424C11.9591 15.2133 12.3857 15.896 12.9191 16.472C13.4737 17.0267 14.1351 17.4533 14.9031 17.752C15.6711 18.0507 16.5137 18.2 17.4311 18.2C18.4977 18.2 19.4577 17.976 20.3111 17.528C21.1857 17.08 21.9857 16.4293 22.7111 15.576L26.7431 19.224C25.6551 20.568 24.2897 21.6133 22.6471 22.36C21.0257 23.0853 19.1804 23.448 17.1111 23.448ZM26.5051 23L36.3931 0.599998H42.6331L52.5531 23H45.9611L38.2171 3.704H40.7131L32.9691 23H26.5051ZM31.9131 18.648L33.5451 13.976H44.4891L46.1211 18.648H31.9131ZM62.2213 23.448C60.3867 23.448 58.616 23.224 56.9093 22.776C55.224 22.3067 53.848 21.7093 52.7813 20.984L54.8613 16.312C55.864 16.952 57.016 17.4853 58.3173 17.912C59.64 18.3173 60.952 18.52 62.2533 18.52C63.128 18.52 63.832 18.4453 64.3653 18.296C64.8987 18.1253 65.2827 17.912 65.5173 17.656C65.7733 17.3787 65.9013 17.0587 65.9013 16.696C65.9013 16.184 65.6667 15.7787 65.1973 15.48C64.728 15.1813 64.12 14.936 63.3733 14.744C62.6267 14.552 61.7947 14.36 60.8773 14.168C59.9813 13.976 59.0747 13.7307 58.1573 13.432C57.2613 13.1333 56.44 12.7493 55.6933 12.28C54.9467 11.7893 54.3387 11.16 53.8693 10.392C53.4 9.60267 53.1653 8.61067 53.1653 7.416C53.1653 6.072 53.528 4.856 54.2533 3.768C55 2.68 56.1093 1.80533 57.5813 1.144C59.0533 0.482665 60.888 0.151999 63.0853 0.151999C64.5573 0.151999 65.9973 0.322666 67.4053 0.664C68.8347 0.983999 70.104 1.464 71.2133 2.104L69.2613 6.808C68.1947 6.232 67.1387 5.80533 66.0933 5.528C65.048 5.22933 64.0347 5.08 63.0533 5.08C62.1787 5.08 61.4747 5.176 60.9413 5.368C60.408 5.53867 60.024 5.77333 59.7893 6.072C59.5547 6.37067 59.4373 6.712 59.4373 7.096C59.4373 7.58667 59.6613 7.98133 60.1093 8.28C60.5787 8.55733 61.1867 8.792 61.9333 8.984C62.7013 9.15467 63.5333 9.336 64.4293 9.528C65.3467 9.72 66.2533 9.96533 67.1493 10.264C68.0667 10.5413 68.8987 10.9253 69.6453 11.416C70.392 11.8853 70.9893 12.5147 71.4373 13.304C71.9067 14.072 72.1413 15.0427 72.1413 16.216C72.1413 17.5173 71.768 18.7227 71.0213 19.832C70.296 20.92 69.1973 21.7947 67.7253 22.456C66.2747 23.1173 64.44 23.448 62.2213 23.448ZM79.5236 23V5.624H72.6436V0.599998H92.7076V5.624H85.8596V23H79.5236ZM106.052 23.448C104.26 23.448 102.606 23.16 101.092 22.584C99.5769 22.008 98.2542 21.1973 97.1236 20.152C96.0142 19.0853 95.1502 17.848 94.5316 16.44C93.9129 15.032 93.6036 13.4853 93.6036 11.8C93.6036 10.1147 93.9129 8.568 94.5316 7.16C95.1502 5.752 96.0142 4.52533 97.1236 3.48C98.2542 2.41333 99.5769 1.592 101.092 1.016C102.606 0.439999 104.26 0.151999 106.052 0.151999C107.865 0.151999 109.518 0.439999 111.012 1.016C112.526 1.592 113.838 2.41333 114.948 3.48C116.057 4.52533 116.921 5.752 117.54 7.16C118.18 8.568 118.5 10.1147 118.5 11.8C118.5 13.4853 118.18 15.0427 117.54 16.472C116.921 17.88 116.057 19.1067 114.948 20.152C113.838 21.1973 112.526 22.008 111.012 22.584C109.518 23.16 107.865 23.448 106.052 23.448ZM106.052 18.2C106.905 18.2 107.694 18.0507 108.42 17.752C109.166 17.4533 109.806 17.0267 110.34 16.472C110.894 15.896 111.321 15.2133 111.62 14.424C111.94 13.6347 112.1 12.76 112.1 11.8C112.1 10.8187 111.94 9.944 111.62 9.176C111.321 8.38667 110.894 7.71467 110.34 7.16C109.806 6.584 109.166 6.14667 108.42 5.848C107.694 5.54933 106.905 5.4 106.052 5.4C105.198 5.4 104.398 5.54933 103.652 5.848C102.926 6.14667 102.286 6.584 101.732 7.16C101.198 7.71467 100.772 8.38667 100.452 9.176C100.153 9.944 100.004 10.8187 100.004 11.8C100.004 12.76 100.153 13.6347 100.452 14.424C100.772 15.2133 101.198 15.896 101.732 16.472C102.286 17.0267 102.926 17.4533 103.652 17.752C104.398 18.0507 105.198 18.2 106.052 18.2ZM133.114 23.448C131.322 23.448 129.669 23.16 128.154 22.584C126.639 22.008 125.317 21.1973 124.186 20.152C123.077 19.0853 122.213 17.848 121.594 16.44C120.975 15.032 120.666 13.4853 120.666 11.8C120.666 10.1147 120.975 8.568 121.594 7.16C122.213 5.752 123.077 4.52533 124.186 3.48C125.317 2.41333 126.639 1.592 128.154 1.016C129.669 0.439999 131.322 0.151999 133.114 0.151999C134.927 0.151999 136.581 0.439999 138.074 1.016C139.589 1.592 140.901 2.41333 142.01 3.48C143.119 4.52533 143.983 5.752 144.602 7.16C145.242 8.568 145.562 10.1147 145.562 11.8C145.562 13.4853 145.242 15.0427 144.602 16.472C143.983 17.88 143.119 19.1067 142.01 20.152C140.901 21.1973 139.589 22.008 138.074 22.584C136.581 23.16 134.927 23.448 133.114 23.448ZM133.114 18.2C133.967 18.2 134.757 18.0507 135.482 17.752C136.229 17.4533 136.869 17.0267 137.402 16.472C137.957 15.896 138.383 15.2133 138.682 14.424C139.002 13.6347 139.162 12.76 139.162 11.8C139.162 10.8187 139.002 9.944 138.682 9.176C138.383 8.38667 137.957 7.71467 137.402 7.16C136.869 6.584 136.229 6.14667 135.482 5.848C134.757 5.54933 133.967 5.4 133.114 5.4C132.261 5.4 131.461 5.54933 130.714 5.848C129.989 6.14667 129.349 6.584 128.794 7.16C128.261 7.71467 127.834 8.38667 127.514 9.176C127.215 9.944 127.066 10.8187 127.066 11.8C127.066 12.76 127.215 13.6347 127.514 14.424C127.834 15.2133 128.261 15.896 128.794 16.472C129.349 17.0267 129.989 17.4533 130.714 17.752C131.461 18.0507 132.261 18.2 133.114 18.2ZM148.881 23V0.599998H155.217V17.976H165.905V23H148.881ZM176.221 23.448C174.387 23.448 172.616 23.224 170.909 22.776C169.224 22.3067 167.848 21.7093 166.781 20.984L168.861 16.312C169.864 16.952 171.016 17.4853 172.317 17.912C173.64 18.3173 174.952 18.52 176.253 18.52C177.128 18.52 177.832 18.4453 178.365 18.296C178.899 18.1253 179.283 17.912 179.517 17.656C179.773 17.3787 179.901 17.0587 179.901 16.696C179.901 16.184 179.667 15.7787 179.197 15.48C178.728 15.1813 178.12 14.936 177.373 14.744C176.627 14.552 175.795 14.36 174.877 14.168C173.981 13.976 173.075 13.7307 172.157 13.432C171.261 13.1333 170.44 12.7493 169.693 12.28C168.947 11.7893 168.339 11.16 167.869 10.392C167.4 9.60267 167.165 8.61067 167.165 7.416C167.165 6.072 167.528 4.856 168.253 3.768C169 2.68 170.109 1.80533 171.581 1.144C173.053 0.482665 174.888 0.151999 177.085 0.151999C178.557 0.151999 179.997 0.322666 181.405 0.664C182.835 0.983999 184.104 1.464 185.213 2.104L183.261 6.808C182.195 6.232 181.139 5.80533 180.093 5.528C179.048 5.22933 178.035 5.08 177.053 5.08C176.179 5.08 175.475 5.176 174.941 5.368C174.408 5.53867 174.024 5.77333 173.789 6.072C173.555 6.37067 173.437 6.712 173.437 7.096C173.437 7.58667 173.661 7.98133 174.109 8.28C174.579 8.55733 175.187 8.792 175.933 8.984C176.701 9.15467 177.533 9.336 178.429 9.528C179.347 9.72 180.253 9.96533 181.149 10.264C182.067 10.5413 182.899 10.9253 183.645 11.416C184.392 11.8853 184.989 12.5147 185.437 13.304C185.907 14.072 186.141 15.0427 186.141 16.216C186.141 17.5173 185.768 18.7227 185.021 19.832C184.296 20.92 183.197 21.7947 181.725 22.456C180.275 23.1173 178.44 23.448 176.221 23.448Z" fill="white"/>
</g>
<defs>
<filter id="filter0_d_103_3" x="0.79108" y="0.151999" width="189.35" height="31.296" filterUnits="userSpaceOnUse" color-interpolation-filters="sRGB">
<feFlood flood-opacity="0" result="BackgroundImageFix"/>
<feColorMatrix in="SourceAlpha" type="matrix" values="0 0 0 0 0 0 0 0 0 0 0 0 0 0 0 0 0 0 127 0" result="hardAlpha"/>
<feOffset dy="4"/>
<feGaussianBlur stdDeviation="2"/>
<feComposite in2="hardAlpha" operator="out"/>
<feColorMatrix type="matrix" values="0 0 0 0 0 0 0 0 0 0 0 0 0 0 0 0 0 0 0.25 0"/>
<feBlend mode="normal" in2="BackgroundImageFix" result="effect1_dropShadow_103_3"/>
<feBlend mode="normal" in="SourceGraphic" in2="effect1_dropShadow_103_3" result="shape"/>
</filter>
</defs>
</svg>
